<svg width="17" height="16" viewBox="0 0 17 16" fill="none" xmlns="http://www.w3.org/2000/svg">
<path d="M10.0465 12.7133C10.0465 13.12 9.77986 13.6533 9.43986 13.86L8.49988 14.4667C7.62654 15.0067 6.41321 14.4 6.41321 13.32V9.75334C6.41321 9.28001 6.14654 8.67335 5.87321 8.34001L3.31319 5.64667C2.97319 5.30667 2.70654 4.70668 2.70654 4.30001V2.75334C2.70654 1.94668 3.31322 1.34001 4.05322 1.34001H12.9465C13.6865 1.34001 14.2932 1.94667 14.2932 2.68667V4.16667C14.2932 4.70667 13.9532 5.38001 13.6199 5.71334" stroke="#4C4C4C" stroke-width="1.5" stroke-miterlimit="10" stroke-linecap="round" stroke-linejoin="round"/>
<path d="M11.2134 11.0133C12.3916 11.0133 13.3468 10.0582 13.3468 8.88C13.3468 7.70179 12.3916 6.74666 11.2134 6.74666C10.0352 6.74666 9.08008 7.70179 9.08008 8.88C9.08008 10.0582 10.0352 11.0133 11.2134 11.0133Z" stroke="#4C4C4C" stroke-width="1.5" stroke-linecap="round" stroke-linejoin="round"/>
<path d="M13.7467 11.4133L13.0801 10.7467" stroke="#4C4C4C" stroke-width="1.5" stroke-linecap="round" stroke-linejoin="round"/>
</svg>
