<svg width="25" height="25" viewBox="0 0 25 25" fill="none" xmlns="http://www.w3.org/2000/svg">
<g id="Buildings" clip-path="url(#clip0_1_3786)">
<path id="Vector" d="M22.7024 19.851H21.2277V9.351C21.2277 8.95318 21.0697 8.57164 20.7884 8.29034C20.5071 8.00904 20.1255 7.851 19.7277 7.851H15.6027C15.5033 7.851 15.4079 7.89051 15.3376 7.96083C15.2672 8.03116 15.2277 8.12654 15.2277 8.226V19.851H13.7277V3.38944C13.7302 3.15579 13.6795 2.92465 13.5794 2.7135C13.4794 2.50235 13.3326 2.31673 13.1502 2.17069C12.9016 1.97685 12.5982 1.86627 12.2832 1.85466C11.9681 1.84304 11.6574 1.93099 11.3952 2.106L3.89522 7.101C3.68948 7.23827 3.52087 7.42428 3.40441 7.64248C3.28795 7.86068 3.22725 8.10429 3.22772 8.35162V19.851H1.75303C1.55922 19.8481 1.37151 19.9188 1.22767 20.0487C1.08383 20.1786 0.994525 20.3582 0.977722 20.5513C0.97091 20.6539 0.985265 20.7568 1.01989 20.8536C1.05452 20.9504 1.10869 21.0391 1.17902 21.1141C1.24936 21.1891 1.33436 21.2488 1.42875 21.2895C1.52314 21.3303 1.62491 21.3512 1.72772 21.351H22.7277C22.8305 21.3512 22.9323 21.3303 23.0267 21.2895C23.1211 21.2488 23.2061 21.1891 23.2764 21.1141C23.3468 21.0391 23.4009 20.9504 23.4356 20.8536C23.4702 20.7568 23.4845 20.6539 23.4777 20.5513C23.4609 20.3582 23.3716 20.1786 23.2278 20.0487C23.0839 19.9188 22.8962 19.8481 22.7024 19.851ZM7.35272 17.601C7.35295 17.7038 7.33203 17.8056 7.29127 17.9C7.25051 17.9944 7.19078 18.0794 7.11579 18.1497C7.04079 18.22 6.95214 18.2742 6.85533 18.3088C6.75852 18.3435 6.65562 18.3578 6.55303 18.351C6.35977 18.3342 6.18005 18.2447 6.0501 18.1007C5.92015 17.9567 5.84962 17.7687 5.85272 17.5747V16.1263C5.85008 15.9326 5.92079 15.745 6.05068 15.6012C6.18056 15.4574 6.36001 15.368 6.55303 15.351C6.65562 15.3442 6.75852 15.3585 6.85533 15.3932C6.95214 15.4278 7.04079 15.482 7.11579 15.5523C7.19078 15.6226 7.25051 15.7076 7.29127 15.802C7.33203 15.8964 7.35295 15.9982 7.35272 16.101V17.601ZM7.35272 12.351C7.35295 12.4538 7.33203 12.5556 7.29127 12.65C7.25051 12.7444 7.19078 12.8294 7.11579 12.8997C7.04079 12.97 6.95214 13.0242 6.85533 13.0588C6.75852 13.0935 6.65562 13.1078 6.55303 13.101C6.35985 13.084 6.18026 12.9945 6.05036 12.8505C5.92045 12.7065 5.84984 12.5187 5.85272 12.3247V10.8763C5.85008 10.6826 5.92079 10.495 6.05068 10.3512C6.18056 10.2074 6.36001 10.118 6.55303 10.101C6.65562 10.0942 6.75852 10.1085 6.85533 10.1432C6.95214 10.1778 7.04079 10.232 7.11579 10.3023C7.19078 10.3726 7.25051 10.4576 7.29127 10.552C7.33203 10.6464 7.35295 10.7482 7.35272 10.851V12.351ZM11.1027 17.601C11.1029 17.7038 11.082 17.8056 11.0413 17.9C11.0005 17.9944 10.9408 18.0794 10.8658 18.1497C10.7908 18.22 10.7021 18.2742 10.6053 18.3088C10.5085 18.3435 10.4056 18.3578 10.303 18.351C10.1101 18.3342 9.93065 18.245 9.80075 18.1014C9.67084 17.9578 9.6001 17.7703 9.60272 17.5766V16.1263C9.60032 15.9327 9.67114 15.7454 9.801 15.6018C9.93086 15.4582 10.1102 15.3689 10.303 15.3519C10.4056 15.3451 10.5085 15.3595 10.6053 15.3941C10.7021 15.4287 10.7908 15.4829 10.8658 15.5532C10.9408 15.6236 11.0005 15.7086 11.0413 15.803C11.082 15.8974 11.1029 15.9991 11.1027 16.1019V17.601ZM11.1027 12.351C11.1029 12.4538 11.082 12.5556 11.0413 12.65C11.0005 12.7444 10.9408 12.8294 10.8658 12.8997C10.7908 12.97 10.7021 13.0242 10.6053 13.0588C10.5085 13.0935 10.4056 13.1078 10.303 13.101C10.1102 13.084 9.93086 12.9948 9.801 12.8512C9.67114 12.7076 9.60032 12.5202 9.60272 12.3266V10.8763C9.60032 10.6827 9.67114 10.4954 9.801 10.3518C9.93086 10.2082 10.1102 10.1189 10.303 10.1019C10.4056 10.0951 10.5085 10.1095 10.6053 10.1441C10.7021 10.1787 10.7908 10.2329 10.8658 10.3032C10.9408 10.3736 11.0005 10.4586 11.0413 10.553C11.082 10.6474 11.1029 10.7491 11.1027 10.8519V12.351Z" fill="#8E8E8E"/>
</g>
<defs>
<clipPath id="clip0_1_3786">
<rect width="24" height="24" fill="white" transform="translate(0.227539 0.350952)"/>
</clipPath>
</defs>
</svg>
