<svg width="25" height="25" viewBox="0 0 25 25" fill="none" xmlns="http://www.w3.org/2000/svg">
<g id="Notepad" clip-path="url(#clip0_1_3789)">
<path id="Vector" d="M19.0151 3.85815H17.5151V3.10815C17.5151 2.90924 17.4361 2.71848 17.2955 2.57782C17.1548 2.43717 16.964 2.35815 16.7651 2.35815C16.5662 2.35815 16.3755 2.43717 16.2348 2.57782C16.0942 2.71848 16.0151 2.90924 16.0151 3.10815V3.85815H13.0151V3.10815C13.0151 2.90924 12.9361 2.71848 12.7955 2.57782C12.6548 2.43717 12.464 2.35815 12.2651 2.35815C12.0662 2.35815 11.8755 2.43717 11.7348 2.57782C11.5942 2.71848 11.5151 2.90924 11.5151 3.10815V3.85815H8.51514V3.10815C8.51514 2.90924 8.43612 2.71848 8.29547 2.57782C8.15481 2.43717 7.96405 2.35815 7.76514 2.35815C7.56622 2.35815 7.37546 2.43717 7.23481 2.57782C7.09415 2.71848 7.01514 2.90924 7.01514 3.10815V3.85815H5.51514C5.11731 3.85815 4.73578 4.01619 4.45448 4.29749C4.17317 4.5788 4.01514 4.96033 4.01514 5.35815V19.6082C4.01514 20.4038 4.33121 21.1669 4.89382 21.7295C5.45643 22.2921 6.21949 22.6082 7.01514 22.6082H17.5151C18.3108 22.6082 19.0738 22.2921 19.6365 21.7295C20.1991 21.1669 20.5151 20.4038 20.5151 19.6082V5.35815C20.5151 4.96033 20.3571 4.5788 20.0758 4.29749C19.7945 4.01619 19.413 3.85815 19.0151 3.85815ZM15.2651 16.6082H9.26514C9.06622 16.6082 8.87546 16.5291 8.73481 16.3885C8.59415 16.2478 8.51514 16.0571 8.51514 15.8582C8.51514 15.6592 8.59415 15.4685 8.73481 15.3278C8.87546 15.1872 9.06622 15.1082 9.26514 15.1082H15.2651C15.464 15.1082 15.6548 15.1872 15.7955 15.3278C15.9361 15.4685 16.0151 15.6592 16.0151 15.8582C16.0151 16.0571 15.9361 16.2478 15.7955 16.3885C15.6548 16.5291 15.464 16.6082 15.2651 16.6082ZM15.2651 13.6082H9.26514C9.06622 13.6082 8.87546 13.5291 8.73481 13.3885C8.59415 13.2478 8.51514 13.0571 8.51514 12.8582C8.51514 12.6592 8.59415 12.4685 8.73481 12.3278C8.87546 12.1872 9.06622 12.1082 9.26514 12.1082H15.2651C15.464 12.1082 15.6548 12.1872 15.7955 12.3278C15.9361 12.4685 16.0151 12.6592 16.0151 12.8582C16.0151 13.0571 15.9361 13.2478 15.7955 13.3885C15.6548 13.5291 15.464 13.6082 15.2651 13.6082Z" fill="#8E8E8E"/>
</g>
<defs>
<clipPath id="clip0_1_3789">
<rect width="24" height="24" fill="white" transform="translate(0.265137 0.858154)"/>
</clipPath>
</defs>
</svg>
