<svg width="25" height="25" viewBox="0 0 25 25" fill="none" xmlns="http://www.w3.org/2000/svg">
<g id="Users" clip-path="url(#clip0_1_3783)">
<path id="Vector" d="M16.2031 18.6396C16.2769 18.7528 16.3187 18.8837 16.3242 19.0187C16.3297 19.1537 16.2987 19.2877 16.2343 19.4065C16.17 19.5253 16.0748 19.6245 15.9587 19.6936C15.8426 19.7628 15.71 19.7993 15.5749 19.7993H1.74307C1.60797 19.7993 1.47539 19.7628 1.35933 19.6936C1.24326 19.6245 1.14803 19.5253 1.08369 19.4065C1.01934 19.2877 0.988284 19.1537 0.993787 19.0187C0.999289 18.8837 1.04115 18.7528 1.11495 18.6396C2.17067 17.0146 3.72353 15.7744 5.54182 15.1043C4.53663 14.4351 3.77348 13.4602 3.36523 12.3237C2.95697 11.1872 2.92528 9.94956 3.27485 8.79369C3.62441 7.63782 4.33667 6.62513 5.3063 5.90537C6.27592 5.18561 7.45144 4.797 8.65901 4.797C9.86658 4.797 11.0421 5.18561 12.0117 5.90537C12.9814 6.62513 13.6936 7.63782 14.0432 8.79369C14.3927 9.94956 14.3611 11.1872 13.9528 12.3237C13.5445 13.4602 12.7814 14.4351 11.7762 15.1043C13.5945 15.7744 15.1473 17.0146 16.2031 18.6396ZM24.4446 18.6255C23.3886 17.0073 21.8392 15.7726 20.0262 15.1043C21.2129 14.3049 22.0503 13.0834 22.3681 11.6884C22.6859 10.2933 22.4601 8.82958 21.7368 7.59512C21.0134 6.36066 19.8468 5.44825 18.4744 5.04362C17.102 4.63899 15.627 4.77254 14.3496 5.41709C14.3008 5.44231 14.2581 5.47796 14.2246 5.52152C14.191 5.56508 14.1675 5.61547 14.1556 5.66914C14.1437 5.72281 14.1437 5.77844 14.1557 5.83209C14.1677 5.88574 14.1913 5.93609 14.2249 5.97959C15.1748 7.16441 15.7203 8.62225 15.7815 10.1396C15.8428 11.6569 15.4165 13.154 14.5653 14.4115C14.5102 14.4936 14.4899 14.5942 14.5087 14.6913C14.5275 14.7884 14.5839 14.8742 14.6656 14.9299C15.7755 15.7045 16.7256 16.6859 17.464 17.8202C17.7618 18.2763 17.8834 18.8251 17.8062 19.3643C17.7975 19.4179 17.8006 19.4728 17.8152 19.5251C17.8298 19.5775 17.8556 19.626 17.8908 19.6674C17.926 19.7087 17.9698 19.742 18.0192 19.7647C18.0685 19.7875 18.1222 19.7993 18.1765 19.7993H23.8296C23.9948 19.7993 24.1553 19.7449 24.2864 19.6443C24.4174 19.5438 24.5116 19.4029 24.5543 19.2433C24.5804 19.1384 24.5841 19.0292 24.5652 18.9228C24.5463 18.8163 24.5052 18.7151 24.4446 18.6255Z" fill="#8E8E8E"/>
</g>
<defs>
<clipPath id="clip0_1_3783">
<rect width="24" height="24" fill="white" transform="translate(0.78418 0.299316)"/>
</clipPath>
</defs>
</svg>
